<svg id="canvas" height="100%" xmlns="http://www.w3.org/2000/svg" version="1.1" xmlns:xlink="http://www.w3.org/1999/xlink" viewBox="0 0 900 512"><defs><linearGradient gradientTransform="matrix(6.123233995736766e-17,1,-1,6.123233995736766e-17,0,0)"><stop stop-color="#3a5dde" offset="0"></stop><stop stop-color="hsv(287, 74%, 87%)" offset="1"></stop></linearGradient><linearGradient gradientTransform="matrix(6.123233995736766e-17,1,-1,6.123233995736766e-17,0,0)"><stop stop-color="#426bff" offset="0"></stop><stop stop-color="hsv(287, 74%, 100%)" offset="1"></stop></linearGradient><linearGradient gradientTransform="matrix(6.123233995736766e-17,1,-1,6.123233995736766e-17,0,0)" id="SvgjsLinearGradient1007"><stop stop-color="#3250bf" offset="0"></stop><stop stop-color="hsv(287, 74%, 75%)" offset="1"></stop></linearGradient><linearGradient gradientTransform="matrix(6.123233995736766e-17,1,-1,6.123233995736766e-17,0,0)" id="SvgjsLinearGradient1006"><stop stop-color="#213680" offset="0"></stop><stop stop-color="hsv(287, 74%, 50%)" offset="1"></stop></linearGradient><linearGradient gradientTransform="matrix(6.123233995736766e-17,1,-1,6.123233995736766e-17,0,0)"><stop stop-color="#29429e" offset="0"></stop><stop stop-color="hsv(287, 74%, 62%)" offset="1"></stop></linearGradient><linearGradient gradientTransform="matrix(6.123233995736766e-17,1,-1,6.123233995736766e-17,0,0)"><stop stop-color="#111b40" offset="0"></stop><stop stop-color="hsv(287, 74%, 25%)" offset="1"></stop></linearGradient><linearGradient gradientTransform="matrix(6.123233995736766e-17,1,-1,6.123233995736766e-17,0,0)" id="SvgjsLinearGradient1005"><stop stop-color="#19285e" offset="0"></stop><stop stop-color="hsv(287, 74%, 37%)" offset="1"></stop></linearGradient></defs><rect width="900" height="512" fill="#188fbfff"></rect><path d="M953.7843066671714 732.000441727416C897.2030817218858 791.6197436760688 785.9661004807099 830.2875162539799 700.1363519596096 831.5679465392263C614.3066034385092 832.848376824473 497.9926821660654 801.3706139103026 438.8058155405694 739.6830234388951C379.6189489150735 677.9954329674877 345.84062699510037 549.3780573055949 345.015152206634 461.4424037107819C344.18967741816766 373.5067501159688 377.1311486905648 268.3960220830428 433.85296680977126 212.06910187001668C490.5747849289778 155.7421816569906 601.6185083481002 123.37740363569745 685.346060921873 123.48088243262538C769.0736134956455 123.58436122955331 877.1720088008319 154.29476591580345 936.218282252407 212.68997465158424C995.2645557039821 271.085183387365 1036.696030895529 387.3003903346715 1039.623701631323 473.85213484731014C1042.5513723671172 560.4038793599489 1010.3655316124571 672.3811397787633 953.7843066671714 732.000441727416C897.2030817218858 791.6197436760688 785.9661004807099 830.2875162539799 700.1363519596096 831.5679465392263 " fill="url(#SvgjsLinearGradient1005)" stroke="none" opacity="0.5"></path><path d="M727.5574639306599 654.4452346341811C675.087933184058 665.1067426787575 588.1344670140993 615.4661142604205 530.7177906206349 604.5995549785648C473.30111422717044 593.7329956967092 425.49461744494715 614.0519860809463 383.05740556987325 589.2458789430474C340.62019369479947 564.4397718051484 306.85232009651094 497.6361619195967 276.0945193701918 455.762912151171C245.33671864387264 413.8896623827453 207.9808001448487 380.1465863756507 198.51060121195843 338.00638033249305C189.04040227906816 295.8661742893354 208.65735372708892 248.21716897202583 219.27332577285023 202.92167589222493C229.88929781861154 157.62618281242402 231.77894692087028 99.63971670783656 262.20643348652624 66.23342185368756C292.6339200521822 32.827126999538564 355.1478725750221 23.138900132738527 401.838245166786 2.483906767330893C448.52861775854984 -18.17108659807674 497.8269216474565 -55.01430172050101 542.3486690371094 -57.69653833875827C586.8704164267622 -60.37877495701554 627.4450671655636 -34.77860408465489 668.968729504703 -13.609512942212689C710.4923918438424 7.5595782002295095 750.9694104355908 26.624446431960962 791.4906430719456 69.31800851589489C832.0118757083003 112.01157059982881 887.6717372129237 186.58669499575038 912.0961253228315 242.55185956139087C936.5205134327393 298.5170241270314 949.1304967684899 355.42922138478536 938.0369717313924 405.1089959097379C926.943446694295 454.7887704346905 880.6148930670352 499.0744669236992 845.5349751002464 540.6305067111064C810.4550571334576 582.1865464985135 780.0269946772618 643.7837265896047 727.5574639306599 654.4452346341811C675.087933184058 665.1067426787575 588.1344670140993 615.4661142604205 530.7177906206349 604.5995549785648 " fill="none" stroke-width="4" stroke="url(#SvgjsLinearGradient1006)" opacity="0.5"></path><path d="M1046.561967060879 413.3996140322883C994.1834849424342 441.37535418813883 919.358641120775 439.84079450615246 857.1090141751749 438.7194906979484C794.8593872295748 437.59818688974434 723.4601486296839 440.05894482716275 673.0642053872787 406.67179118306416C622.6682621448733 373.28463753896557 585.4074895187258 294.06975588760844 554.7333547207431 238.39656883335664C524.0592199227603 182.72338177910484 488.04378176002723 127.9001740396024 489.01939659938216 72.63266885755348C489.9950114387371 17.36516367550456 531.8665074093576 -42.099864289406185 560.5870437568726 -93.20846225893706C589.3075801043877 -144.31706022846794 616.0279404708326 -207.6233904331624 661.3426146844724 -234.01891895963178C706.6572888981124 -260.41444748610115 775.3317022763947 -251.5550451826638 832.4750890387121 -251.58163341775332C889.6184758010295 -251.60822165284284 948.9494083833165 -260.89050615533995 1004.2029352583772 -234.17844837016884C1059.456462133438 -207.46639058499775 1127.5915015103885 -144.7745663655714 1163.996250289077 -91.30928670672682C1200.4009990677653 -37.84400704788226 1221.400818497713 26.250840171303196 1222.6314279305075 86.6132295828985C1223.862037363302 146.9756189944938 1200.7248170307817 216.40065235461333 1171.3799068858434 270.865049762845C1142.0349967409054 325.32944717107665 1098.9404491793237 385.42387387643777 1046.561967060879 413.3996140322883C994.1834849424342 441.37535418813883 919.358641120775 439.84079450615246 857.1090141751749 438.7194906979484 " fill="url(#SvgjsLinearGradient1007)" stroke="none" opacity="0.5"></path></svg>