<svg width="100%" height="100%" id="svg" viewBox="0 0 1440 590" xmlns="http://www.w3.org/2000/svg" class="transition duration-300 ease-in-out delay-150"><defs><linearGradient id="gradient" x1="50%" y1="100%" x2="50%" y2="0%"><stop offset="5%" stop-color="#083344"></stop><stop offset="95%" stop-color="#0369a1"></stop></linearGradient></defs><path d="M 0,600 L 0,90 C 83.58502232909655,76.59017519752662 167.1700446581931,63.18035039505324 237,67 C 306.8299553418069,70.81964960494676 362.90484369632424,91.86877361731364 427,95 C 491.09515630367576,98.13122638268636 563.2105805565099,83.34455513569219 632,87 C 700.7894194434901,90.65544486430781 766.2528340776366,112.75300583991756 823,103 C 879.7471659223634,93.24699416008244 927.7780831329442,51.64342150463758 993,52 C 1058.2219168670558,52.35657849536242 1140.6348333905873,94.67330814153212 1218,108 C 1295.3651666094127,121.32669185846788 1367.6825833047064,105.66334592923394 1440,90 L 1440,600 L 0,600 Z" stroke="none" stroke-width="0" fill="url(#gradient)" fill-opacity="0.265" class="transition-all duration-300 ease-in-out delay-150 path-0"></path><defs><linearGradient id="gradient" x1="50%" y1="100%" x2="50%" y2="0%"><stop offset="5%" stop-color="#083344"></stop><stop offset="95%" stop-color="#0369a1"></stop></linearGradient></defs><path d="M 0,600 L 0,210 C 61.61456544142905,230.6781174854002 123.2291308828581,251.35623497080041 197,249 C 270.7708691171419,246.64376502919959 356.6980419099966,221.25317760219855 433,204 C 509.3019580900034,186.74682239780145 575.9787014771556,177.6310546204054 640,190 C 704.0212985228444,202.3689453795946 765.3871521813811,236.22260391618 824,240 C 882.6128478186189,243.77739608382 938.4726897973205,217.47852971487464 1013,213 C 1087.5273102026795,208.52147028512536 1180.7220886293371,225.86327722432154 1255,229 C 1329.2779113706629,232.13672277567846 1384.6389556853314,221.06836138783922 1440,210 L 1440,600 L 0,600 Z" stroke="none" stroke-width="0" fill="url(#gradient)" fill-opacity="0.4" class="transition-all duration-300 ease-in-out delay-150 path-1"></path><defs><linearGradient id="gradient" x1="50%" y1="100%" x2="50%" y2="0%"><stop offset="5%" stop-color="#083344"></stop><stop offset="95%" stop-color="#0369a1"></stop></linearGradient></defs><path d="M 0,600 L 0,330 C 68.68842322226038,328.6849879766403 137.37684644452077,327.36997595328063 213,316 C 288.62315355547923,304.63002404671937 371.18103744417726,283.20508416351765 429,285 C 486.81896255582274,286.79491583648235 519.8990037787703,311.80968739264864 587,328 C 654.1009962212297,344.19031260735136 755.2229474407419,351.556166265888 839,346 C 922.7770525592581,340.443833734112 989.2092064582619,321.9656475437994 1058,310 C 1126.7907935417381,298.0343524562006 1197.940226726211,292.5812435589145 1262,297 C 1326.059773273789,301.4187564410855 1383.0298866368944,315.70937822054276 1440,330 L 1440,600 L 0,600 Z" stroke="none" stroke-width="0" fill="url(#gradient)" fill-opacity="0.53" class="transition-all duration-300 ease-in-out delay-150 path-2"></path><defs><linearGradient id="gradient" x1="50%" y1="100%" x2="50%" y2="0%"><stop offset="5%" stop-color="#083344"></stop><stop offset="95%" stop-color="#0369a1"></stop></linearGradient></defs><path d="M 0,600 L 0,450 C 84.6499484713157,455.03194778426655 169.2998969426314,460.06389556853316 235,469 C 300.7001030573686,477.93610443146684 347.4503607007901,490.7763655101339 418,485 C 488.5496392992099,479.2236344898661 582.8986602542083,454.8306423909309 651,458 C 719.1013397457917,461.1693576090691 760.9549982823771,491.9010649261423 820,483 C 879.0450017176229,474.0989350738577 955.2813466162831,425.56509790450013 1032,406 C 1108.7186533837169,386.43490209549987 1185.9196152524905,395.83854345585706 1254,408 C 1322.0803847475095,420.16145654414294 1381.0401923737547,435.0807282720715 1440,450 L 1440,600 L 0,600 Z" stroke="none" stroke-width="0" fill="url(#gradient)" fill-opacity="1" class="transition-all duration-300 ease-in-out delay-150 path-3"></path></svg>